<svg xmlns="http://www.w3.org/2000/svg" width="41" height="42" viewBox="0 0 41 42">
  <path fill="#BABBC3" d="M40.7289925,20.3475196 C40.7289925,9.1101032 31.6112219,0 20.3644962,0 C9.11770406,0 0,9.1101032 0,20.3475196 C0,31.5848696 9.11770406,40.6950392 20.3644962,40.6950392 C31.6112219,40.6950392 40.7289925,31.5848696 40.7289925,20.3475196 Z M15.7149281,20.5516757 L15.7149281,17.4026717 L17.6463161,17.4026717 L17.6463161,15.4982764 C17.6463161,12.9296848 18.4144041,11.0791737 21.2291659,11.0791737 L24.5769231,11.0791737 L24.5769231,14.2207027 L22.2203445,14.2207027 C21.0390142,14.2207027 20.7709827,15.0046061 20.7709827,15.8258843 L20.7709827,17.402618 L24.4032408,17.402618 L23.9077053,20.5516757 L20.7710903,20.5516757 L20.7710903,30.0495602 L17.6463161,30.0495602 L17.6463161,20.5516757 L15.7149281,20.5516757 Z" opacity=".3" transform="translate(0 .936)"/>
</svg>
