<svg xmlns="http://www.w3.org/2000/svg" width="42" height="40" viewBox="0 0 42 40">
  <g fill="#FF0079" fill-rule="evenodd">
    <path fill-rule="nonzero" d="M10.5907081,24.7947634 L7.53898435,37.520829 C7.41586759,38.0308108 7.61364025,38.5642699 8.03669037,38.8746935 C8.46105025,39.1838129 9.02817316,39.2138118 9.48265735,38.9451258 L20.9587105,32.1588473 L32.4295246,38.9451258 C32.6364656,39.0677301 32.8682918,39.1290323 33.0988083,39.1290323 C33.3725466,39.1290323 33.6449752,39.0442527 33.8754916,38.8759978 C34.2985417,38.5655742 34.4963144,38.0321151 34.3731977,37.5221333 L31.3214739,24.7960677 L41.4511012,16.2476785 C41.8558148,15.9072559 42.0142949,15.3568409 41.8518856,14.8546849 C41.690786,14.352529 41.2402311,13.9964548 40.7124007,13.9534129 L27.3516134,12.8551914 L22.1610635,0.790406452 C21.9554323,0.310423656 21.4813018,0 20.9574008,0 C20.4334997,0 19.9593692,0.310423656 19.753738,0.790406452 L14.5592588,12.8551914 L1.20240079,13.9521086 C0.674570448,13.9951505 0.224015519,14.3512247 0.0629159372,14.8533806 C-0.0994933975,15.3555366 0.0589866791,15.9059516 0.463700263,16.2463742 L10.5907081,24.7947634 Z M15.5599099,15.3894484 C16.0432086,15.3503194 16.464949,15.0477215 16.6561729,14.6029548 L20.9574008,4.6133129 L25.2533896,14.6016505 C25.4446135,15.0464172 25.8663539,15.3490151 26.3496526,15.3881441 L37.3437168,16.2907204 L29.0123799,23.3222075 C28.6351711,23.6391527 28.4701422,24.1413086 28.5854005,24.6199871 L31.1053647,35.1261323 L21.6279941,29.5189419 C21.2167318,29.2737333 20.701999,29.2737333 20.2907366,29.5189419 L10.8081271,35.1274366 L13.3280913,24.6199871 C13.4433495,24.1413086 13.2783207,23.6391527 12.9011119,23.3222075 L4.57239448,16.2907204 L15.5599099,15.3894484 Z"/>
    <polygon points="21.168 1.491 21.168 31.092 10.137 36.574 12.563 24.643 2.925 15.487 16.799 13.891"/>
  </g>
</svg>
