<svg xmlns="http://www.w3.org/2000/svg" width="41" height="41" viewBox="0 0 41 41">
  <path fill="#BABBC3" d="M191.424772,1.15906788 C180.177737,1.15906788 171.060276,10.2689282 171.060276,21.5065875 C171.060276,32.7442468 180.177737,41.8541071 191.424772,41.8541071 C202.671807,41.8541071 211.789268,32.7442468 211.789268,21.5065875 C211.789268,10.2689282 202.671807,1.15906788 191.424772,1.15906788 Z M187.341626,29.6073294 L183.642437,29.6073294 L183.642437,17.71523 L187.341626,17.71523 L187.341626,29.6073294 L187.341626,29.6073294 Z M185.492839,16.0896428 C184.30716,16.0896428 183.347363,15.1293009 183.347363,13.9462242 C183.347632,12.7642236 184.30716,11.8038816 185.492839,11.8038816 C186.675287,11.8038816 187.636431,12.7642236 187.636431,13.9462242 C187.636431,15.1295699 186.675018,16.0896428 185.492839,16.0896428 Z M201.196357,29.6073294 L197.500129,29.6073294 L197.500129,23.8240267 C197.500129,22.4448466 197.474552,20.6710386 195.577304,20.6710386 C193.653402,20.6710386 193.357521,22.1731532 193.357521,23.7242265 L193.357521,29.6070604 L189.661562,29.6070604 L189.661562,17.71523 L193.209446,17.71523 L193.209446,19.3402791 L193.259253,19.3402791 C193.753286,18.4052235 194.959426,17.4195953 196.759214,17.4195953 C200.50498,17.4195953 201.196357,19.8825898 201.196357,23.0845365 L201.196357,29.6073294 Z" opacity=".3" transform="translate(-171 -1.064)"/>
</svg>
