<svg xmlns="http://www.w3.org/2000/svg" width="42" height="42" viewBox="0 0 42 42">
  <path fill="#BABBC3" d="M77.7106501,0 C66.4638579,0 57.3461538,9.1101032 57.3461538,20.3475196 C57.3461538,31.5848696 66.4638579,40.6950392 77.7106501,40.6950392 C88.9573757,40.6950392 98.0751463,31.5848696 98.0751463,20.3475196 C98.0751463,9.1101032 88.9573757,0 77.7106501,0 Z M79.9150156,25.5755424 C78.6938811,25.5755424 77.544829,24.9017161 77.1498069,24.136284 C77.1498069,24.136284 76.4933985,26.7956589 76.3537153,27.3089322 C76.1193802,28.1763823 75.6672861,29.0423759 75.2481826,29.7282328 C74.650412,30.5086089 73.9609591,29.9293557 73.8783479,29.2179268 C73.8513508,28.42552 73.8798597,27.4875582 74.0766149,26.6336493 C74.2944278,25.697198 75.5320845,20.3439207 75.5320845,20.3439207 C75.5320845,20.3439207 75.1701069,19.6070277 75.1701069,18.5174685 C75.1701069,16.8065755 76.1419498,15.5294347 77.3525554,15.5294347 C78.3814163,15.5294347 78.8785955,16.3188742 78.8785955,17.2628244 C78.8785955,18.3178562 78.2192175,19.8966813 77.8797555,21.3584366 C77.5958536,22.5830848 78.4820616,23.5810922 79.66567,23.5810922 C81.8090267,23.5810922 83.2540214,20.7716304 83.2540214,17.4444177 C83.2540214,14.9141434 81.5837086,13.0216572 78.5451809,13.0216572 C75.1130349,13.0216572 72.9741598,15.6329633 72.9741598,18.5489748 C72.9741598,19.5544812 73.264055,20.2643455 73.7206846,20.8121463 C73.9294805,21.0643052 73.9595013,21.1663232 73.8828834,21.4560308 C73.8288351,21.6691304 73.7041624,22.1793825 73.6530838,22.3819619 C73.5779777,22.6746367 73.3451544,22.7782193 73.0867918,22.6701589 C71.5051916,22.0112766 70.7691957,20.2448699 70.7691957,18.2608858 C70.7691957,14.9816878 73.4803561,11.0496499 78.8560799,11.0496499 C83.1758917,11.0496499 86.0192301,14.2388065 86.0192301,17.662049 C86.020688,22.1928158 83.5528797,25.5755424 79.9150156,25.5755424 Z" opacity=".3" transform="translate(-57 .936)"/>
</svg>
