<svg xmlns="http://www.w3.org/2000/svg" width="38" height="38" viewBox="0 0 38 38">
  <path fill="#FFF" d="M2100.72721,49.5189091 C2103.90309,49.5189091 2106.90739,48.4180606 2109.31521,46.4052121 L2110.55539,47.6453939 L2110.14315,48.0576364 C2109.92667,48.2741212 2109.80576,48.5666061 2109.80576,48.8717576 C2109.80576,49.1769091 2109.92667,49.4705455 2110.14315,49.6858788 L2119.65121,59.1927879 C2119.87576,59.4173333 2120.17055,59.5301818 2120.46533,59.5301818 C2120.76012,59.5301818 2121.05491,59.4173333 2121.27945,59.1927879 L2123.822,56.6502424 C2124.03848,56.4337576 2124.15939,56.1412727 2124.15939,55.8361212 C2124.15939,55.5309697 2124.03848,55.2373333 2123.822,55.022 L2114.31394,45.5150909 C2113.8637,45.0648485 2113.13594,45.0648485 2112.6857,45.5150909 L2112.18364,46.0171515 L2110.94806,44.7815758 C2113.01273,42.3587879 2114.14582,39.3199394 2114.14582,36.1026061 C2114.14582,32.5190909 2112.75018,29.1497576 2110.2157,26.6152727 C2107.68121,24.0807879 2104.31188,22.6851515 2100.72836,22.6851515 C2097.14485,22.6851515 2093.77552,24.0807879 2091.24218,26.6152727 C2088.7077,29.1497576 2087.31206,32.5179394 2087.31206,36.1026061 C2087.31206,39.6861212 2088.7077,43.0554545 2091.24218,45.5887879 C2093.77436,48.1244242 2097.1437,49.5189091 2100.72721,49.5189091 Z M2121.37848,55.8372727 L2120.46418,56.7504242 L2112.58436,48.8717576 L2113.49867,47.9586061 L2121.37848,55.8372727 Z M2092.86927,28.2446667 C2094.96848,26.1454545 2097.75861,24.9893333 2100.72721,24.9893333 C2103.69582,24.9893333 2106.48709,26.1454545 2108.5863,28.2446667 C2110.68552,30.3438788 2111.84164,33.1351515 2111.84164,36.1037576 C2111.84164,39.0723636 2110.68552,41.8624848 2108.5863,43.961697 C2106.48709,46.0609091 2103.69582,47.2170303 2100.72721,47.2170303 C2097.75861,47.2170303 2094.96848,46.0609091 2092.86927,43.961697 C2090.77006,41.8624848 2089.61394,39.0712121 2089.61394,36.1037576 C2089.61394,33.134 2090.76891,30.3438788 2092.86927,28.2446667 Z" transform="translate(-2087 -22)"/>
</svg>
