<svg xmlns="http://www.w3.org/2000/svg" width="42" height="40" viewBox="0 0 42 40">
  <path fill="#FF0079" d="M252.590708,88.7947634 L249.538984,101.520829 C249.415868,102.030811 249.61364,102.56427 250.03669,102.874694 C250.46105,103.183813 251.028173,103.213812 251.482657,102.945126 L262.958711,96.1588473 L274.429525,102.945126 C274.636466,103.06773 274.868292,103.129032 275.098808,103.129032 C275.372547,103.129032 275.644975,103.044253 275.875492,102.875998 C276.298542,102.565574 276.496314,102.032115 276.373198,101.522133 L273.321474,88.7960677 L283.451101,80.2476785 C283.855815,79.9072559 284.014295,79.3568409 283.851886,78.8546849 C283.690786,78.352529 283.240231,77.9964548 282.712401,77.9534129 L269.351613,76.8551914 L264.161063,64.7904065 C263.955432,64.3104237 263.481302,64 262.957401,64 C262.4335,64 261.959369,64.3104237 261.753738,64.7904065 L256.559259,76.8551914 L243.202401,77.9521086 C242.67457,77.9951505 242.224016,78.3512247 242.062916,78.8533806 C241.900507,79.3555366 242.058987,79.9059516 242.4637,80.2463742 L252.590708,88.7947634 Z M257.55991,79.3894484 C258.043209,79.3503194 258.464949,79.0477215 258.656173,78.6029548 L262.957401,68.6133129 L267.25339,78.6016505 C267.444613,79.0464172 267.866354,79.3490151 268.349653,79.3881441 L279.343717,80.2907204 L271.01238,87.3222075 C270.635171,87.6391527 270.470142,88.1413086 270.5854,88.6199871 L273.105365,99.1261323 L263.627994,93.5189419 C263.216732,93.2737333 262.701999,93.2737333 262.290737,93.5189419 L252.808127,99.1274366 L255.328091,88.6199871 C255.44335,88.1413086 255.278321,87.6391527 254.901112,87.3222075 L246.572394,80.2907204 L257.55991,79.3894484 Z" transform="translate(-242 -64)"/>
</svg>
