<svg xmlns="http://www.w3.org/2000/svg" width="42" height="41" viewBox="0 0 42 41">
  <path fill="#BABBC3" d="M134.677757,0.273552442 C123.430722,0.273552442 114.313261,9.38341279 114.313261,20.6210721 C114.313261,31.8587313 123.430722,40.9685917 134.677757,40.9685917 C145.924792,40.9685917 155.042253,31.8587313 155.042253,20.6210721 C155.042253,9.38341279 145.924792,0.273552442 134.677757,0.273552442 Z M142.918634,17.8177041 C142.924773,17.9715723 142.927976,18.1257071 142.927976,18.2806419 C142.927976,23.8481629 138.687866,29.6068858 131.592282,29.6068858 C129.423253,29.6068858 127.311338,28.9884797 125.484998,27.8180683 C125.446832,27.7938014 125.431086,27.746601 125.446298,27.7042005 C125.461511,27.6620668 125.504481,27.6359332 125.548518,27.6409999 C125.85491,27.6775336 126.168241,27.6956671 126.47917,27.6956671 C128.166726,27.6956671 129.76434,27.1743287 131.115613,26.1852524 C129.495847,26.0487177 128.10374,24.953507 127.603051,23.3910918 C127.592642,23.3585581 127.600115,23.3230911 127.622534,23.2974909 C127.64522,23.2718906 127.679916,23.2606905 127.71301,23.2668239 C128.161922,23.3518914 128.618307,23.3574915 129.058145,23.2860241 C127.387669,22.7673524 126.213612,21.2038705 126.213612,19.4238531 L126.214146,19.3721193 C126.214947,19.3382523 126.233362,19.3073186 126.26272,19.2905185 C126.291812,19.2734516 126.328109,19.273185 126.357467,19.2897185 C126.793034,19.5313208 127.275041,19.6865223 127.769591,19.7459896 C126.809582,18.9814488 126.245906,17.8225041 126.245906,16.5827587 C126.245906,15.8675517 126.435399,15.1646115 126.794102,14.5499389 C126.810115,14.5224719 126.838406,14.5048718 126.869899,14.5024717 C126.901659,14.4992717 126.932352,14.5131385 126.952369,14.5376721 C128.917226,16.9456956 131.807397,18.4283767 134.898003,18.6190452 C134.846493,18.3598427 134.820338,18.0926401 134.820338,17.8230375 C134.820338,15.5934157 136.635735,13.779798 138.866951,13.779798 C139.963876,13.779798 141.02397,14.2302024 141.783811,15.0174101 C142.640266,14.8430084 143.456154,14.5283387 144.209857,14.0819343 C144.244286,14.0614008 144.287522,14.0646008 144.319282,14.0894011 C144.350242,14.114468 144.363053,14.1560684 144.350776,14.1944687 C144.09536,14.9926099 143.59734,15.6888833 142.928242,16.1915549 C143.558374,16.0819538 144.169823,15.8968854 144.75138,15.6390162 C144.790346,15.6211493 144.836519,15.6323494 144.864542,15.6651498 C144.892299,15.6982167 144.894701,15.7454172 144.870681,15.7811509 C144.340901,16.5734253 143.684347,17.2584986 142.918634,17.8177041 Z" opacity=".3" transform="translate(-114 -.064)"/>
</svg>
